<svg width="23" height="23" viewBox="0 0 23 23" fill="none" xmlns="http://www.w3.org/2000/svg">
<path d="M22.7441 9.64691C22.9772 9.40193 23.0588 9.04496 22.9568 8.71599C22.8547 8.38702 22.5876 8.14904 22.2593 8.09305L15.7851 7.00464C15.564 6.96789 15.3717 6.82091 15.2714 6.61443L12.2843 0.500457C12.1329 0.190733 11.8336 0 11.5001 0C11.1667 0 10.8674 0.192483 10.716 0.500457L7.72891 6.61443C7.62685 6.82266 7.43463 6.96789 7.21519 7.00464L0.740976 8.09305C0.414373 8.14729 0.147308 8.38702 0.0435434 8.71599C-0.0585199 9.04496 0.0214296 9.40193 0.256175 9.64691L4.88645 14.5185C5.04294 14.683 5.11609 14.9192 5.08207 15.1484L4.06824 21.9396C4.01721 22.2826 4.15159 22.622 4.42206 22.825C4.57345 22.9405 4.75206 23 4.93748 23C5.12289 23 5.21305 22.965 5.33723 22.9003L11.1821 19.7943C11.2807 19.7418 11.3896 19.7155 11.5001 19.7155C11.6107 19.7155 11.7213 19.7435 11.8182 19.7943L17.6631 22.9003C17.7872 22.9668 17.925 23 18.0628 23C18.2006 23 18.4268 22.9388 18.5782 22.825C18.847 22.622 18.9831 22.2826 18.9321 21.9396L17.9182 15.1484C17.8842 14.9192 17.9574 14.683 18.1139 14.5185L22.7441 9.64691ZM16.8415 15.3234L17.7668 21.5231C17.7702 21.5494 17.7651 21.5739 17.7481 21.5931C17.7311 21.6124 17.7073 21.6246 17.6835 21.6246C17.6597 21.6246 17.658 21.6211 17.6461 21.6141L12.3133 18.7811C12.0632 18.6481 11.7825 18.5781 11.5001 18.5781C11.2178 18.5781 10.9371 18.6481 10.687 18.7811L5.35424 21.6141C5.34233 21.6211 5.32872 21.6246 5.31681 21.6246C5.293 21.6246 5.26918 21.6124 5.25217 21.5931C5.23686 21.5739 5.23006 21.5494 5.23346 21.5231L6.15884 15.3234C6.24559 14.739 6.06017 14.137 5.66043 13.7171L1.4316 9.26894C1.39928 9.23395 1.40609 9.19545 1.41119 9.1797C1.41629 9.16395 1.4316 9.12721 1.47753 9.12021L7.387 8.12629C7.95005 8.0318 8.43995 7.65908 8.69851 7.12888L11.4253 1.54862C11.4457 1.50487 11.4848 1.50137 11.5001 1.50137C11.5155 1.50137 11.5546 1.50662 11.575 1.54862L14.3018 7.12888C14.5603 7.65908 15.0503 8.0318 15.6133 8.12629L21.5228 9.12021C21.5687 9.12721 21.584 9.16395 21.5891 9.1797C21.5942 9.19545 21.601 9.23395 21.5687 9.26894L17.3399 13.7171C16.9401 14.137 16.753 14.7372 16.8415 15.3234Z" fill="black"/>
</svg>
