<svg width="23" height="23" viewBox="0 0 23 23" fill="none" xmlns="http://www.w3.org/2000/svg">
<path d="M22.4557 1.0894C22.7568 1.0894 23 0.844286 23 0.544701C23 0.245115 22.755 0 22.4557 0H0.54604C0.244952 0 0 0.243413 0 0.544701C0 0.845989 0.244952 1.0894 0.544338 1.0894H22.4557Z" fill="black"/>
<path d="M22.4557 7.3024H0.546039C0.244952 7.3024 0 7.54751 0 7.8471C0 8.14668 0.244952 8.3918 0.544338 8.3918H22.454C22.755 8.3918 22.9983 8.14668 22.9983 7.8471C22.9983 7.54751 22.7533 7.3024 22.454 7.3024H22.4557Z" fill="black"/>
<path d="M22.4557 14.6065H0.546039C0.244952 14.6065 0 14.8516 0 15.1512C0 15.4508 0.244952 15.6959 0.544338 15.6959H22.454C22.755 15.6959 22.9983 15.4508 22.9983 15.1512C22.9983 14.8516 22.7533 14.6065 22.454 14.6065H22.4557Z" fill="black"/>
<path d="M22.4557 21.9106H0.546039C0.244952 21.9106 0.00170106 22.1557 0.00170106 22.4553C0.00170106 22.7549 0.246653 23 0.546039 23H22.4557C22.7567 23 23 22.7549 23 22.4553C23 22.1557 22.755 21.9106 22.4557 21.9106Z" fill="black"/>
</svg>
