<svg width="30" height="28" viewBox="0 0 30 28" fill="none" xmlns="http://www.w3.org/2000/svg">
<path d="M26.8405 25.0696L18.1707 16.3999C18.1095 16.3387 18.1044 16.2401 18.1605 16.1754C18.7014 15.5342 19.1352 14.8147 19.4498 14.0356C19.8394 13.0746 20.0367 12.0592 20.0367 11.0182C20.0367 9.97722 19.8394 8.96177 19.4498 8.00074C19.0467 7.00569 18.4531 6.11271 17.6877 5.34729C16.9222 4.58187 16.0292 3.98994 15.0341 3.58512C14.0748 3.19731 13.0593 3 12.0183 3C10.9774 3 9.96188 3.19731 9.00083 3.58682C8.00577 3.98994 7.11276 4.58357 6.34733 5.34899C5.5819 6.11441 4.98996 7.0074 4.58513 8.00244C4.19731 8.96177 4 9.97722 4 11.0182C4 12.0592 4.19731 13.0746 4.58683 14.0356C4.98996 15.0307 5.5836 15.9237 6.34903 16.6891C7.11446 17.4545 8.00747 18.0464 9.00253 18.4496C9.96358 18.8391 10.9791 19.0364 12.02 19.0364C13.061 19.0364 14.0765 18.8391 15.0376 18.4496C15.8149 18.1349 16.5344 17.6995 17.1774 17.1603C17.2148 17.1279 17.2556 17.1211 17.2828 17.1211C17.327 17.1211 17.3696 17.1381 17.4019 17.1705L26.0717 25.8401C26.1738 25.9422 26.3115 26 26.4561 26C26.6007 26 26.7385 25.9439 26.8405 25.8401C27.0532 25.6275 27.0532 25.2822 26.8405 25.0696ZM12.0183 17.9461C11.1185 17.9461 10.2408 17.776 9.41076 17.4392C8.55178 17.0905 7.78124 16.5785 7.11957 15.9169C6.45789 15.2552 5.9459 14.4847 5.5972 13.6257C5.26041 12.7957 5.09032 11.918 5.09032 11.0182C5.09032 10.1184 5.26041 9.24072 5.5972 8.41066C5.9459 7.55169 6.45789 6.78117 7.11957 6.11951C7.78124 5.45785 8.55178 4.94587 9.41076 4.59718C10.2408 4.26039 11.1185 4.0903 12.0183 4.0903C12.9181 4.0903 13.7958 4.26039 14.6259 4.59718C15.4849 4.94587 16.2554 5.45785 16.9171 6.11951C17.5788 6.78117 18.0908 7.55169 18.4395 8.41066C18.7763 9.24072 18.9464 10.1184 18.9464 11.0182C18.9464 11.918 18.7763 12.7957 18.4395 13.6257C18.0908 14.4847 17.5788 15.2552 16.9171 15.9169C16.2554 16.5785 15.4849 17.0905 14.6259 17.4392C13.7958 17.776 12.9181 17.9461 12.0183 17.9461Z" fill="black"/>
</svg>
