<svg width="20" height="24" viewBox="0 0 20 24" fill="none" xmlns="http://www.w3.org/2000/svg">
<path d="M4.45225 19.1691C5.82514 19.1691 6.94347 18.056 6.94347 16.6869C6.94347 15.3178 5.8269 14.2048 4.45225 14.2048C3.0776 14.2048 1.96103 15.3178 1.96103 16.6869C1.96103 18.056 3.0776 19.1691 4.45225 19.1691ZM4.45225 15.2574C5.24228 15.2574 5.88659 15.8992 5.88659 16.6869C5.88659 17.4746 5.24403 18.1165 4.45225 18.1165C3.66046 18.1165 3.01791 17.4746 3.01791 16.6869C3.01791 15.8992 3.66046 15.2574 4.45225 15.2574Z" fill="black"/>
<path d="M15.5478 19.1691C16.9206 19.1691 18.039 18.056 18.039 16.6869C18.039 15.3178 16.9224 14.2048 15.5478 14.2048C14.1731 14.2048 13.0565 15.3178 13.0565 16.6869C13.0565 18.056 14.1731 19.1691 15.5478 19.1691ZM15.5478 15.2574C16.3378 15.2574 16.9821 15.8992 16.9821 16.6869C16.9821 17.4746 16.3395 18.1165 15.5478 18.1165C14.756 18.1165 14.1134 17.4746 14.1134 16.6869C14.1134 15.8992 14.756 15.2574 15.5478 15.2574Z" fill="black"/>
<path d="M17.593 2.21544H16.7012C16.6696 2.21544 16.638 2.20299 16.6152 2.1781C16.5888 2.15143 16.573 2.11409 16.573 2.07497V2.05542C16.573 1.54156 16.4308 1.0526 16.1745 0.677434C15.8796 0.247148 15.4512 0 15 0H5.02809C4.16784 0 3.47612 0.881909 3.45506 2.00741C3.45506 2.02875 3.45506 2.05008 3.45506 2.0732C3.45506 2.11409 3.44101 2.15321 3.41292 2.17988C3.39712 2.19588 3.36728 2.21722 3.3269 2.21722H2.37008C1.0639 2.21722 0 3.20759 0 4.42377V18.9166C0 19.7185 0.465239 20.4653 1.21313 20.8635C1.24824 20.8813 1.28511 20.9009 1.32374 20.9187C1.33251 20.9222 1.34129 20.9258 1.35183 20.9293C1.37114 20.9471 1.38343 20.9738 1.38343 21.0022V22.7749C1.38343 23.4506 1.91714 24 2.57198 24H4.68926C5.3441 24 5.87781 23.4506 5.87781 22.7749V21.3329C5.87781 21.2369 5.94979 21.1587 6.03933 21.1587H13.9607C14.0502 21.1587 14.1222 21.2369 14.1222 21.3329V22.7749C14.1222 23.4506 14.6559 24 15.3107 24H17.428C18.0829 24 18.6166 23.4506 18.6166 22.7749V21.0164C18.6166 20.9791 18.6324 20.9453 18.6605 20.924C18.6657 20.9222 18.671 20.9204 18.678 20.9169C19.4926 20.5328 20 19.7665 20 18.9166V4.45755C20 3.22181 18.9203 2.21722 17.5948 2.21722L17.593 2.21544ZM15.4617 2.05542V2.05897C15.4617 2.14432 15.3968 2.21544 15.3178 2.21544H4.71383C4.67697 2.21544 4.64185 2.20122 4.61552 2.17277C4.58392 2.14076 4.56636 2.09809 4.56636 2.05186C4.56636 2.04297 4.56636 2.03408 4.56636 2.02519C4.5769 1.48111 4.84726 1.13439 5.02809 1.13439H15C15.1194 1.13439 15.2247 1.26952 15.2651 1.3282C15.3915 1.51134 15.4635 1.77626 15.4635 2.05364L15.4617 2.05542ZM18.8869 12.3841C18.8869 12.4801 18.815 12.5583 18.7254 12.5583H1.27458C1.18504 12.5583 1.11306 12.4801 1.11306 12.3841V6.99304C1.11306 6.89702 1.18504 6.81879 1.27458 6.81879H18.7272C18.8167 6.81879 18.8887 6.89702 18.8887 6.99304V12.3841H18.8869ZM18.8869 5.50482C18.8869 5.60083 18.815 5.67906 18.7254 5.67906H1.27458C1.18504 5.67906 1.11306 5.60083 1.11306 5.50482V4.78293C1.11306 3.94903 1.85218 3.26982 2.75983 3.26982H17.2138C18.1373 3.26982 18.8887 3.9597 18.8887 4.8096V5.50659L18.8869 5.50482ZM1.11131 13.8723C1.11131 13.7763 1.18329 13.698 1.27282 13.698H18.7254C18.815 13.698 18.8869 13.7763 18.8869 13.8723V18.5645C18.8869 19.4127 18.1355 20.1043 17.2121 20.1043H2.78617C1.86271 20.1043 1.11131 19.4144 1.11131 18.5645V13.8723ZM2.65625 21.1462C2.65976 21.1462 2.66152 21.1462 2.66503 21.1462C2.75456 21.1516 2.84761 21.1551 2.94242 21.1569H4.60674C4.69628 21.1569 4.76826 21.2351 4.76826 21.3312V22.686C4.76826 22.782 4.69628 22.8603 4.60674 22.8603H2.65801C2.56847 22.8603 2.49649 22.782 2.49649 22.686V21.3205C2.49649 21.2245 2.56847 21.1462 2.65801 21.1462H2.65625ZM15.395 22.8621C15.3055 22.8621 15.2335 22.7838 15.2335 22.6878V21.3329C15.2335 21.2369 15.3055 21.1587 15.395 21.1587C15.395 21.1587 17.0646 21.1587 17.0664 21.1587C17.1577 21.1569 17.2489 21.1534 17.3367 21.148C17.3402 21.148 17.342 21.148 17.3455 21.148C17.435 21.148 17.507 21.2263 17.507 21.3223V22.6878C17.507 22.7838 17.435 22.8621 17.3455 22.8621H15.395Z" fill="black"/>
</svg>
