<svg width="18" height="27" viewBox="0 0 18 27" fill="none" xmlns="http://www.w3.org/2000/svg">
<path d="M17.2914 5.99145C17.1868 5.72334 17.0714 5.46141 16.9461 5.20628C16.5257 4.33781 15.9875 3.54604 15.3401 2.84499C14.5151 1.95153 13.5542 1.25028 12.4845 0.760994C11.3806 0.255929 10.2084 0 9.00033 0H8.98817C7.7672 0.0017981 6.58473 0.262921 5.47357 0.776577C4.40054 1.27265 3.43917 1.9817 2.61634 2.88415C1.99121 3.56982 1.47017 4.3408 1.06042 5.18431C0.92058 5.46841 0.793269 5.7607 0.678854 6.06078C0.216407 7.27589 -0.0118691 8.56553 0.000475068 9.89392C0.0177938 11.7631 0.524644 13.575 1.4652 15.1324L8.20698 26.4965C8.29247 26.6408 8.40762 26.7563 8.54046 26.8366C8.67146 26.9413 8.83138 27 8.99996 27C9.16854 27 9.32847 26.9413 9.45946 26.8366C9.59248 26.7561 9.70745 26.6406 9.79312 26.4963L16.4673 15.2429C17.4699 13.6302 18 11.7458 18 9.79343C18 8.47502 17.7616 7.19598 17.2914 5.99145ZM16.8231 9.79343C16.8231 11.4928 16.3615 13.1323 15.4884 14.5344C15.4884 14.5344 15.4842 14.541 15.4834 14.5424L9.00015 25.474L2.452 14.4361C1.6336 13.0817 1.19307 11.5066 1.17778 9.88113C1.16691 8.72516 1.36534 7.60375 1.76717 6.54786C2.15519 5.52814 2.71602 4.61191 3.43383 3.82475C4.15126 3.03778 4.98938 2.41964 5.92459 1.98729C6.89297 1.53977 7.92417 1.31201 8.98983 1.31061H9.00051C10.0542 1.31061 11.0762 1.53378 12.0383 1.97371C12.9709 2.40026 13.8087 3.01181 14.5283 3.79118C15.248 4.57056 15.813 5.4782 16.2077 6.48913C16.6162 7.53522 16.8232 8.64704 16.8232 9.79343H16.8231Z" fill="white"/>
<path d="M9.00015 15.6636C12.0188 15.6636 14.4659 13.01 14.4659 9.73669C14.4659 6.46334 12.0188 3.80976 9.00015 3.80976C5.98151 3.80976 3.53442 6.46334 3.53442 9.73669C3.53442 13.01 5.98151 15.6636 9.00015 15.6636Z" fill="white"/>
</svg>
