<svg width="15" height="15" viewBox="0 0 15 15" fill="none" xmlns="http://www.w3.org/2000/svg">
<path d="M14.8611 5.52992C14.6115 4.78096 13.9771 4.2435 13.2056 4.12724L11.1158 3.81244C10.7613 3.75904 10.4567 3.5324 10.3037 3.20823L9.35181 1.19178C9.17787 0.823376 8.9063 0.517437 8.56629 0.306936C8.24192 0.106098 7.86833 0 7.48588 0C7.10343 0 6.72985 0.106197 6.40548 0.306936C6.06557 0.517437 5.7939 0.823376 5.61996 1.19178L4.66807 3.20823C4.51505 3.5325 4.21041 3.75904 3.85595 3.81244L1.76618 4.12724C0.994707 4.2435 0.360413 4.78096 0.11066 5.52992C-0.143177 6.29123 0.0469023 7.1172 0.606679 7.68544L2.18111 9.28348C2.42249 9.52845 2.53208 9.87414 2.47599 10.2135L2.09862 12.4968C1.99661 13.1137 2.16786 13.7381 2.56824 14.21C2.96364 14.676 3.53607 14.9433 4.13868 14.9433C4.48009 14.9433 4.82099 14.8551 5.12464 14.6883L6.96795 13.6752C7.29043 13.498 7.68124 13.498 8.00372 13.6752L9.84703 14.6883C10.1507 14.8551 10.4917 14.9434 10.8331 14.9433C11.4357 14.9433 12.008 14.6759 12.4034 14.2099C12.8038 13.738 12.975 13.1136 12.8729 12.4968L12.4956 10.2135C12.4395 9.87414 12.5491 9.52845 12.7905 9.28348L14.3649 7.68544C14.9247 7.1172 15.1147 6.29133 14.861 5.52992H14.8611ZM13.3806 6.71612L11.2001 8.92953C11.0302 9.10197 10.9527 9.35063 10.993 9.5943L11.5099 12.7219C11.6068 13.3078 11.017 13.7549 10.5127 13.4778L7.82091 11.9984C7.61121 11.8831 7.36056 11.8831 7.15085 11.9984L4.45907 13.4778C3.95478 13.7549 3.36502 13.3079 3.46185 12.7219L3.97879 9.5943C4.01903 9.35063 3.94163 9.10197 3.77167 8.92953L1.59104 6.71612C1.18259 6.30149 1.40784 5.57824 1.972 5.49326L4.98328 5.03968C5.21789 5.00432 5.42072 4.8506 5.52542 4.62884L6.86952 1.78154C7.12127 1.24817 7.8504 1.24817 8.10215 1.78154L9.44625 4.62884C9.55095 4.8507 9.75378 5.00442 9.98839 5.03968L12.9997 5.49326C13.5637 5.57824 13.7891 6.30149 13.3805 6.71612H13.3806Z" fill="#57776B"/>
</svg>
