<svg width="18" height="18" viewBox="0 0 18 18" fill="none" xmlns="http://www.w3.org/2000/svg">
<path d="M17.2925 5.49661C16.8392 4.42482 16.1902 3.4624 15.364 2.636C14.5376 1.80959 13.5752 1.16075 12.5034 0.707479C11.3934 0.238032 10.2146 0 9 0C7.78539 0 6.60645 0.238032 5.49661 0.707479C4.42482 1.16075 3.4624 1.80959 2.636 2.636C1.80959 3.4624 1.16075 4.42482 0.707479 5.49661C0.238032 6.60663 0 7.78539 0 9C0 10.2146 0.238032 11.3936 0.707479 12.5034C1.16075 13.5752 1.80978 14.5376 2.636 15.364C3.4624 16.1904 4.42482 16.8392 5.49661 17.2925C6.60663 17.762 7.78539 18 9 18C10.2146 18 11.3936 17.762 12.5034 17.2925C13.5752 16.8392 14.5376 16.1904 15.364 15.364C16.1904 14.5376 16.8392 13.5752 17.2925 12.5034C17.762 11.3934 18 10.2146 18 9C18 7.78539 17.762 6.60645 17.2925 5.49661ZM8.99982 16.8205C7.94384 16.8205 6.91965 16.6137 5.95595 16.2062C5.02477 15.8123 4.18826 15.2484 3.46994 14.5301C2.75143 13.8117 2.18751 12.9752 1.79379 12.0441C1.3861 11.0803 1.1795 10.0562 1.1795 9.00018C1.1795 7.9442 1.38628 6.92002 1.79379 5.95632C2.18769 5.02514 2.75161 4.18881 3.46994 3.4703C4.18826 2.75198 5.02477 2.18787 5.95595 1.79416C6.91965 1.38647 7.94384 1.17987 8.99982 1.17987C10.0558 1.17987 11.08 1.38665 12.0437 1.79416C12.9749 2.18806 13.8114 2.75198 14.5297 3.4703C15.2482 4.18863 15.8121 5.02514 16.2058 5.95632C16.6135 6.92002 16.8201 7.9442 16.8201 9.00018C16.8201 10.0562 16.6133 11.0803 16.2058 12.0441C15.8119 12.9752 15.248 13.8116 14.5297 14.5301C13.8114 15.2484 12.9749 15.8125 12.0437 16.2062C11.08 16.6139 10.0558 16.8205 8.99982 16.8205Z" fill="white"/>
<path d="M8.99982 14.4529C12.0113 14.4529 14.4527 12.0115 14.4527 9C14.4527 5.98847 12.0113 3.54714 8.99982 3.54714C5.98828 3.54714 3.54695 5.98847 3.54695 9C3.54695 12.0115 5.98828 14.4529 8.99982 14.4529Z" fill="white"/>
</svg>
