<svg width="22" height="19" viewBox="0 0 22 19" fill="none" xmlns="http://www.w3.org/2000/svg">
<path d="M5.25 18C5.25 18.4142 5.58579 18.75 6 18.75C6.41421 18.75 6.75 18.4142 6.75 18H5.25ZM6.53033 0.469669C6.23744 0.176777 5.76256 0.176777 5.46967 0.469669L0.696699 5.24264C0.403806 5.53553 0.403806 6.01041 0.696699 6.3033C0.989593 6.59619 1.46447 6.59619 1.75736 6.3033L6 2.06066L10.2426 6.3033C10.5355 6.59619 11.0104 6.59619 11.3033 6.3033C11.5962 6.01041 11.5962 5.53553 11.3033 5.24264L6.53033 0.469669ZM6.75 18L6.75 1H5.25L5.25 18H6.75Z" fill="#8B8B8B"/>
<path d="M16.75 1C16.75 0.585786 16.4142 0.25 16 0.25C15.5858 0.25 15.25 0.585786 15.25 1H16.75ZM15.4697 18.5303C15.7626 18.8232 16.2374 18.8232 16.5303 18.5303L21.3033 13.7574C21.5962 13.4645 21.5962 12.9896 21.3033 12.6967C21.0104 12.4038 20.5355 12.4038 20.2426 12.6967L16 16.9393L11.7574 12.6967C11.4645 12.4038 10.9896 12.4038 10.6967 12.6967C10.4038 12.9896 10.4038 13.4645 10.6967 13.7574L15.4697 18.5303ZM15.25 1L15.25 18H16.75V1H15.25Z" fill="#8B8B8B"/>
</svg>
