<svg width="17" height="17" viewBox="0 0 17 17" fill="none" xmlns="http://www.w3.org/2000/svg">
<path d="M14.2056 5.12724C14.9771 5.2435 15.6115 5.78096 15.8611 6.52992C16.1148 7.29133 15.9247 8.1172 15.3649 8.68544L13.7905 10.2835C13.5491 10.5285 13.4395 10.8741 13.4956 11.2135L13.8729 13.4968C13.975 14.1136 13.8038 14.738 13.4034 15.2099C13.008 15.6759 12.4357 15.9433 11.8331 15.9433C11.4917 15.9434 11.1507 15.8551 10.847 15.6883L9.00372 14.6752C8.68124 14.498 8.29043 14.498 7.96795 14.6752L6.12464 15.6883C5.82099 15.8551 5.48009 15.9433 5.13868 15.9433C4.53607 15.9433 3.96364 15.676 3.56824 15.21C3.16786 14.7381 2.99661 14.1137 3.09862 13.4968L3.47599 11.2135C3.53208 10.8741 3.42249 10.5285 3.18111 10.2835L1.60668 8.68544C1.0469 8.1172 0.856823 7.29123 1.11066 6.52992C1.36041 5.78096 1.99471 5.2435 2.76618 5.12724L4.85595 4.81244C5.21041 4.75904 5.51505 4.5325 5.66807 4.20823L6.61996 2.19178C6.7939 1.82338 7.06557 1.51744 7.40548 1.30694C7.72985 1.1062 8.10343 1 8.48588 1C8.86833 1 9.24192 1.1061 9.56629 1.30694C9.9063 1.51744 10.1779 1.82338 10.3518 2.19178L11.3037 4.20823C11.4567 4.5324 11.7613 4.75904 12.1158 4.81244L14.2056 5.12724Z" fill="white" stroke="#0F3D2B"/>
</svg>
