<svg width="12" height="11" viewBox="0 0 12 11" fill="none" xmlns="http://www.w3.org/2000/svg">
<path d="M5.63678 0.787465C5.77974 0.477517 6.22026 0.477517 6.36322 0.787466L7.59904 3.46671C7.65731 3.59304 7.77702 3.68001 7.91517 3.69639L10.8452 4.04379C11.1841 4.08398 11.3203 4.50294 11.0697 4.73468L8.90343 6.73795C8.80129 6.8324 8.75557 6.97313 8.78268 7.10958L9.3577 10.0035C9.42423 10.3383 9.06784 10.5972 8.77 10.4305L6.19538 8.98936C6.07399 8.92142 5.92601 8.92142 5.80462 8.98936L3.23 10.4305C2.93216 10.5972 2.57577 10.3383 2.6423 10.0035L3.21732 7.10958C3.24443 6.97313 3.19871 6.8324 3.09657 6.73795L0.930343 4.73468C0.679743 4.50294 0.81587 4.08398 1.15483 4.04379L4.08483 3.69639C4.22298 3.68001 4.34269 3.59304 4.40096 3.46671L5.63678 0.787465Z" fill="#0F3D2B"/>
</svg>
